<svg xmlns="http://www.w3.org/2000/svg" viewBox="0 0 7409.39 989.56"><defs><style>      .cls-1 {        fill: #980321;      }    </style></defs><g id="Ebene_2" data-name="Ebene 2"><g id="Ebene_1-2" data-name="Ebene 1"><path class="cls-1" d="M221.78,989.25c-22.1-.5-25.2-.7-34-2.4-26.3-5-48.9-12.3-70.8-23-35.1-17.1-60.6-38.2-85.7-71.1-8.2-10.7-14.8-21.1-24.2-37.7-6.4-11.3-7.6-13.9-6.9-14.7,1.3-1.2,89.9-71.3,118.9-94.1,33-26,39.8-31.2,41-31.6s2.6,2.5,6.3,12.6a101.27,101.27,0,0,0,23.5,37.6c12.7,12.9,22.7,17.8,40.1,19.7,10.5,1.2,23.3-.2,31.9-3.5,6.1-2.3,13.4-7.5,20-14.4,13.1-13.6,19.6-26.8,29.4-60.5,6.6-22.7,15.1-58.7,20.8-88.8,11.9-62.1,39.4-219.6,91.2-522.1,6.5-38.2,12-69.4,12-69.5s52.4-.3,116.3-.6c116.5-.5,131.5-.2,133.5,1.8.7.8.5,2.9-1.1,11.4-2.6,13.8-20.9,119.1-37.4,214.7-17.8,103.3-26.4,152.7-26.8,154.2-.4,1.2,4.1,1.2,87.9,1.1,81.3-.1,110.9-.4,111.8-1.3.2-.2,8.9-51.9,19.4-115s19.1-114.7,19.3-114.9c.7-.6,138.9-2,149.4-1.5,13.5.6,14.3.7,14.3,2.8s-4.2,28.2-16.6,103.3c-12.8,77.4-18.8,114.9-19.3,120.1-.3,3.7-.2,4.3.9,4.7,3.7,1.4,27,1.8,119.3,1.8h101.3l2.2-12.3c1.2-6.8,10.3-59.8,20.3-117.8,31.8-185.3,42.8-248,43.7-250.5a3.88,3.88,0,0,1,2.5-2c5.9-1.6,269.3-.8,347.1,1.1,85.2,2,115.9,5.3,156.5,16.9,39.6,11.3,69.3,27.6,92.5,51,21.9,22,35.5,47.5,41.6,78.3,2.6,13.3,3.4,20.6,3.9,36.2a268.13,268.13,0,0,1-26.8,123.8c-9.8,20-18.4,32.5-32.5,47a275.54,275.54,0,0,1-42.6,35.9c-17.7,11.9-61.8,31.5-84.7,37.8-10.2,2.8-13.6,4.5-11.4,5.9.5.3,3.7.7,7.2,1,8.2.6,18,2.5,30.4,5.9,35.4,9.7,56.6,21.1,77.8,41.6,13.8,13.3,22.7,25.7,31.4,43.2,18.8,38.3,23.5,82,14.9,138.7-8,52.4-26.8,100.4-54.1,138.2-15.7,21.7-38.4,45-59.4,60.9-54.4,41.2-123.1,63.6-218.1,70.9-45.1,3.5-73.5,4-263.2,4.3l-175.4.3.5-1.6c2.1-7.6,66.3-382.7,66.3-387.3a2.52,2.52,0,0,0-1.9-2.6c-2.3-1-143.6-1.6-190.6-.8l-28.5.5-16.5,99.7c-9.1,54.8-17.8,107.1-19.4,116.3l-2.9,16.6-3.8.5c-4.9.6-129.4,3.3-151.8,3.4h-9.2l.3-1.9c3.8-22,18.4-109.5,24.4-146.3,12.5-76.4,14.3-87.9,13.9-88.3-.6-.6-161.4-.9-182.4-.2l-18,.5-5.7,32.6c-12.9,74.4-21.2,112.7-31.9,147.3-23.1,74.6-62.5,132.7-118.9,175.4-26,19.7-58.3,36.6-90.4,47.2-18.6,6.1-42.2,11.4-57.8,12.8-11.4,1.1-37.9,1.4-65.2.8Zm1226.5-215.1c71.4-1.8,95.5-4.5,123.8-13.8,30.4-10,49.1-25,61.7-49.4a138.86,138.86,0,0,0,11.7-33.9c4.6-23.9,2.8-51.5-4.4-65-9.6-18.2-25.2-28.7-53.9-35.9-15.7-4-29.8-4.9-91.2-5.9-24-.4-52.5-.8-63.3-1l-19.6-.3-.7,2.6c-2.3,8.5-32.5,185.3-33.8,197.4-.4,3.9-.3,4.5.9,5,4.1,1.5,14.6,1.6,68.8.2Zm99.6-375.9c26.8-2.3,53.4-8.5,69.7-16.3,30.8-14.6,48.4-41.7,53.5-82.3,2.8-21.9-.3-40.4-8.8-53.1-12.1-18.1-34.8-27.9-73.4-31.6-10.4-1-115.2-1.7-115.2-.8,0,.4-4.9,28.6-10.8,62.7-13.6,77.9-19,110.4-19.5,117.4l-.4,5.5,48.2-.4c26.3-.2,51.9-.7,56.7-1.1Zm2141.4,590.5c-51.3-2.4-89.1-7.4-125.9-16.6-42.7-10.7-81.7-28.3-105.9-47.7a285.71,285.71,0,0,1-40.7-40.1c-19.6-23.9-35.9-63.1-43.5-104.1-2.9-15.8-3.3-26.1-3-69.6.7-73,2.2-85.1,37.9-295.1,9-52.6,22.6-131.5,25.4-146.9l1.2-6.4h251.1l-.4,1.9c-2.7,12.3-37.4,214.7-47.9,279.4-5,30.8-6.6,46-8,75.3-1.3,28.5-.6,59.2,1.8,75.4,3.7,25.5,21.4,49.1,46.7,62.2,17.3,9,33,13.2,56.4,15.1,13.9,1.1,46.9.5,56.7-1.1,53.7-8.5,90.6-31.4,114.8-71.1,5.6-9.2,14.2-26.9,19-39.2,16.6-42.6,27-92.5,65.2-316.7,7.3-42.5,13.4-78,13.6-78.8l.3-1.5,108.7-.5c101.6-.4,135.4-.1,139.2,1.4,1.5.6,1.8-2-4.1,34-10.6,63.7-37.6,217.1-48.5,276.1-17.6,94.8-39.9,165.7-68.1,216.9-44.5,80.8-112.1,137-201.5,167.4-49.9,17-105,26.4-177.4,30.1-12.1.6-51.5.7-63.1.2Zm3236.5,0c-62.4-3-112.1-14.9-159.7-38.3-28.2-13.9-49.9-28.3-73.7-49.3-21-18.4-43.8-40.7-47.7-46.6-2.2-3.4-2-4.3,3.4-11.7,6.7-9.2,137.6-180.2,139.7-182.3.7-.8,2,.6,7,7.8,16.2,23.3,42.9,53.3,60.3,68,35.1,29.5,68.4,45.5,105.4,50.7,12.4,1.7,36.3,1.7,47.5,0,40.4-6.2,72.1-25.4,92.6-56,12.8-19,17.6-38.3,16.8-68.2-.3-12.1-.5-13.8-2.2-18.7-5-14.5-13.7-26.4-25-33.8-18.7-12.3-49-24.9-97.8-40.6-83.6-26.9-120.2-43.7-153.2-70.3-9.7-7.9-23.9-22.1-30.1-30.3-16-21.3-26-46.1-30.5-75.5-1.5-9.6-2.1-43.3-1-56.1a390,390,0,0,1,18.8-91.3c13.5-40.6,32.6-75.6,57.9-106.3,14.2-17.2,48.3-50.4,66.6-64.8,29.2-23,69.3-43.9,107.9-56.4,78.6-25.3,172-25,258.4.9,33,9.9,68.3,27,101.9,49.3,13,8.7,20,14,20.29,15.7.21,1.1-1.29,3.7-45.5,78-40.2,67.5-59.79,100.3-62,103.5l-2,3-9.79-9.1c-21.8-20.1-40.1-33-62.6-44-30.21-14.7-58.3-21.4-89.8-21.4-15.5,0-23.9.8-36,3.5-23.1,5.1-41.6,14.7-56,29-16.9,16.9-25.3,37.3-25.3,62,0,17.9,4.1,27.7,16.4,39.8,16.4,15.9,37.7,25.4,102.7,45.6,90.2,28,136.6,49.6,168,77.9a107.26,107.26,0,0,1,18.8,22c19,28.4,29.6,60,32.7,98.2,1.2,14.4.5,48.9-1.4,64-8.7,72.6-34.7,139.3-75.5,194.1-10.9,14.6-20.2,25.2-35.5,40.6-26.6,26.6-50.8,44.9-85.4,64.6-6.6,3.7-28.4,14.4-37.1,18.1-47.7,20.3-97.7,31.5-153.3,34.5-11.8.5-34.3.7-45,.2Zm-3995.3-30.6c-1.5-2.6-30.4-53.6-64.3-113.6-124.6-220.4-155.8-275.4-159.7-281.9-1.2-2-1.5-2.1-1.8-1-.6,2-5.9,31.1-15.3,85.2-9.2,53.1-45,256.7-51.4,292.7-2.1,11.8-3.9,21.6-4.2,21.8-.6.6-241.8.5-244.7-.1-2.1-.4-2.6-.9-2.6-2.2,0-.9,2.3-15,5.2-31.4,10.4-59.9,75.9-439.9,117.6-682.5,32.5-189.2,33.3-193.5,35.8-207.4,1.3-7.3,2.6-13.7,2.8-14.4.4-1.2,6.9-1.2,124.6-1.2,117.9,0,124.2.1,123.8,1.2-.7,2.4-3.3,17-11.8,65.8-45.5,262-56.8,327.5-57.6,336.7l-.4,4.5,1.9-2.1c31.5-34.6,123.8-139,270.1-305.5l88.4-100.7,142.9.4c78.6.2,144.1.6,145.5.9l2.6.5-11.6,12.8c-36.8,40.9-133.2,146.5-262.4,287.8C2970.78,470,2963,478.65,2963,480.85c0,3.2,32.7,60.1,87.9,152.7,11.8,19.8,54.5,91.6,94.9,159.6s79.5,133.9,87.1,146.5l13.7,23.1h-313.3Zm1375.8,3.1c.9-3.4,4.4-22.7,14.4-81,13.5-78.9,42.5-247.5,64.5-374.3,9.6-55.3,32-185.8,49.9-290s32.8-190.1,33-190.8l.3-1.5,49.4-.5c64.4-.7,269.2,0,291.9.9,89.5,3.7,128.3,9.2,164.1,23.4,27,10.7,48.8,25,68.7,44.9a203.81,203.81,0,0,1,38.3,52.9c17.7,34.7,25.9,70.7,27,118.5,1.9,85-24.3,177.2-69.8,245.2-48.4,72.4-118.2,119.1-200.7,134.2-39.6,7.3-79.7,9.4-178.3,9.4h-62.9l-.7,2.6c-1.3,4.6-19.5,109.1-43,247.1-5.4,31.4-9.9,57.9-10.1,58.8l-.4,1.6h-236l.4-1.4Zm397.1-515.2c62.1-3.5,98-15.2,122.7-39.8,14.4-14.4,24.6-33.5,30.8-57.6,4.9-19.3,5.6-52.3,1.4-68.7-3.1-12.1-12.4-24.6-24.3-32.5-12.9-8.6-32.9-14.9-57.2-18-20-2.5-26.4-2.8-66.9-2.8h-40.6l-1.2,6.2c-3.3,16.8-27.2,156.5-33.2,194.1-1.6,10.2-2.8,18.8-2.5,19,1.5,1.5,44.3,1.7,71,.1Zm419.3,515.4c.2-.9,3.6-20.2,7.4-42.9,8.2-48,16.5-96.5,83.9-487.3,66.8-387.3,68.5-397.4,69.9-403.6l1.1-5.5,262.3.4c248,.4,298.6.8,300.2,2.4.7.7-1.1,12.3-19.1,117.4-7,41-13.2,77.1-13.6,80.1a30.43,30.43,0,0,1-1.4,6.2c-1,1.1-51.7,1.8-186.7,2.4-73.2.3-133.2.7-133.3.9s-15.8,89.1-21.5,123.4c-3.6,21.7-5.9,36.9-5.5,37.5.1.2,67.6.6,149.9.9s149.8.6,150,.8-31.9,189.3-33.7,198.2l-.4,1.9h-123.6c-118.9,0-176.9.6-178.1,1.8-.3.3-2.8,13.7-5.5,29.7s-6.9,41-9.4,55.5c-6.2,35.9-10.7,64.4-10.7,66.5a2.23,2.23,0,0,0,1.2,2.2c4.2,1.6,25.3,1.9,160.4,2.5,87.2.4,147.1.9,149.7,1.3,2.4.4,4.7.9,5.1,1.3.9.9-3.8,29.9-24.7,151.7-4.4,25.6-8.2,47.9-8.4,49.8a13.75,13.75,0,0,1-1.3,4.5c-.8,1.1-18.5,1.2-282.7,1.5l-281.8.3.3-1.8Zm740.7.7c-13-.4-18.7-1.1-18.7-2.3,0-.2,1.6-9.3,3.5-20.3,8.4-47.9,80.8-468.1,128-742.8,16.8-97.8,27-156.4,29-166.8l1.5-7.9,145.7.4c164.3.5,204.6,1.2,252.2,4.3,48.8,3.3,82.4,9.9,113.1,22.6,37.1,15.2,68.7,39.8,87.9,68.3,12,18,24.6,44.5,30.9,65.6,7,23.1,7.6,29.8,7.2,79.5-.3,41.4-.4,42.5-4.3,61.7-18.6,90.1-57.3,156-119.3,202.4-31.8,23.9-72.5,42.5-120.2,55.2-4.7,1.2-8.5,2.5-8.5,2.9,0,1.8,9.9,23.9,25.2,56.2,10.8,22.6,16.2,33.7,101.3,207.2,30.8,62.7,55.9,114.1,55.9,114.3s-63.8.3-141.8.3h-141.8l-13.7-34.2c-35.9-89.8-103.6-257.9-118-293-12.9-31.4-15-36.1-15.7-34.5s-6.7,34.7-14.7,81.1c-24.4,140.7-42.2,243.6-45.6,264.4l-2.3,14-2.1.4c-7.1,1.4-177.3,2.3-214.7,1Zm379.8-495.9c40.1-3.4,72.4-13.9,96.1-31.1,6.8-4.9,18.7-17.1,23.7-24.1,11.2-15.8,20.4-38.2,23.9-57.8,1.7-9.9,2.6-28.6,2.2-48.3-.4-21.5-.7-23.1-6.1-34.3-8.8-18.1-17.4-26.5-36.9-35.7-18.1-8.5-29.6-10.7-63.3-12.2-25-1.1-74.1-2-74.7-1.4-.3.3-8.5,46.6-18.2,103.1s-19.2,111.4-21.1,122.3-3.5,20-3.5,20.3c-.1.8,65,.2,77.9-.8Zm-2800.1-250.5c0-2,32.1-187,33.2-191.2l.5-2.1,125.1-.2,125.1-.2-.4,1.9c-.2,1-5.7,33-12.2,70.9-16.4,95.8-20.6,120-20.9,120.3s-56.6.5-125.3.8c-100.6.6-125.1.5-125.1-.2Zm570.7-7.9c1.6-8.7,12.1-69.6,25-144.4l6.8-39.6,46.5-.5c61.8-.7,197.8-.1,200.5.8,1.9.6,2.1.9,1.9,3.1-.3,3.5-8,48.9-17.1,101.9-4.4,25.4-9.5,55.1-11.3,66.1s-3.6,20.2-3.9,20.5-56.6.6-125.2.7l-124.7.2Z"></path></g></g></svg>